<?xml version="1.0" encoding="utf-8"?>
<!-- Generator: Adobe Illustrator 25.0.0, SVG Export Plug-In . SVG Version: 6.00 Build 0)  -->
<svg version="1.1" id="Layer_1" xmlns="http://www.w3.org/2000/svg" xmlns:xlink="http://www.w3.org/1999/xlink" x="0px" y="0px"
	 viewBox="0 0 137 34.3" style="enable-background:new 0 0 137 34.3;" xml:space="preserve">
<style type="text/css">
	.st0{fill-rule:evenodd;clip-rule:evenodd;fill:#FF4A4A;}
</style>
<path class="st0" d="M87.9,34.3h-5.8c-1.1,0-2-0.9-2-2V17.1l-10.2,6.4c-0.9,0.5-1.9,0.5-2.8,0L57,17.1v15.3c0,1.1-0.9,2-2,2h-5.8
	c-1.1,0-2-0.9-2-2V2.9c0-2.1,2.4-3.4,4.1-2.2l16.1,11c0.7,0.5,1.6,0.5,2.2,0l16.1-11c1.7-1.2,4.1,0.1,4.1,2.2v29.4
	C89.8,33.4,89,34.3,87.9,34.3z M38.5,34.1l-35.9,0c-1.4,0-2.6-1.2-2.6-2.6V2c0-1.1,0.9-2,2-2h5.8c1.1,0,2,0.9,2,2v22.4l21.7,0V2
	c0-1.1,0.9-2,2-2h5.8c1.1,0,2,0.9,2,2v29.5C41.1,32.9,40,34.1,38.5,34.1z M98.5,0l35.9,0c1.4,0,2.6,1.2,2.6,2.6v29.5
	c0,1.1-0.9,2-2,2h-5.8c-1.1,0-2-0.9-2-2V11c0-0.7-0.6-1.3-1.3-1.3l-19.1,0c-0.7,0-1.3,0.6-1.3,1.3v21.1c0,1.1-0.9,2-2,2h-5.8
	c-1.1,0-2-0.9-2-2V2.6C95.9,1.2,97,0,98.5,0z M111.6,17.9v5.8c0,1.1,0.9,1.9,2,1.9h5.8c1.1,0,2-0.9,2-1.9v-5.8c0-1.1-0.9-1.9-2-1.9
	h-5.8C112.5,16,111.6,16.8,111.6,17.9z"/>
</svg>
